<svg width="21" height="10" viewBox="0 0 21 10" fill="none" xmlns="http://www.w3.org/2000/svg">
<path d="M18.7372 0.380091L11.1241 7.87297C10.958 8.0373 10.7338 8.12947 10.5001 8.12947C10.2664 8.12947 10.0422 8.0373 9.8761 7.87297L2.26297 0.381716C2.09583 0.217468 1.87087 0.125434 1.63654 0.125434C1.4022 0.125434 1.17724 0.217468 1.0101 0.381716C0.927794 0.461954 0.862385 0.557855 0.817722 0.663767C0.773062 0.769679 0.750053 0.883461 0.750053 0.998405C0.750053 1.11335 0.773062 1.22713 0.817722 1.33304C0.862385 1.43895 0.927794 1.53485 1.0101 1.61509L8.6216 9.10634C9.12295 9.5986 9.79749 9.87439 10.5001 9.87439C11.2027 9.87439 11.8772 9.5986 12.3786 9.10634L19.9901 1.61509C20.0727 1.53483 20.1383 1.43883 20.1831 1.33276C20.2279 1.2267 20.251 1.11273 20.251 0.997591C20.251 0.882451 20.2279 0.768481 20.1831 0.662418C20.1383 0.556355 20.0727 0.460354 19.9901 0.380091C19.823 0.215842 19.598 0.123809 19.3637 0.123809C19.1293 0.123809 18.9044 0.215842 18.7372 0.380091Z" fill="black"/>
</svg>
